<svg id="ad54bb5a-cfcc-4cad-b3c8-b921d6d15df5" data-name="Capa 1" xmlns="http://www.w3.org/2000/svg" viewBox="0 0 183.49 205.72"><path d="M187.26,265.23l2.08-3.71,1-1.15a15,15,0,0,1,6.11-3.47c1.46,0,2.92-.14,4.38-.16,2.76,0,5.53-.05,8.29-.07a17.65,17.65,0,0,0,3.56,0h11.66a17.65,17.65,0,0,0,3.56,0h11.66a17.65,17.65,0,0,0,3.56,0c2.18,0,4.37,0,6.55,0,3.56,0,3.56,0,3.33-4V197.25l.24-4.26,1.32-4,.64-1.09,2.69-3.15,1.2-.92,3.34-1.51,3.77-.46H289l2.77.12a14,14,0,0,1,4.85,1.66l1.2.81,2.6,2.81.75,1.15a25.48,25.48,0,0,1,1.77,5.13c0,1.23,0,2.46.08,3.69V252.7c0,1,0,2-.05,3.05s.26,1.17,1,.91h11.66a17.65,17.65,0,0,0,3.56,0h11.66a17.65,17.65,0,0,0,3.56,0h11.67a17.55,17.55,0,0,0,3.55,0c2.19,0,4.38.07,6.56,0a12.55,12.55,0,0,1,8.62,2.84l1.83,1.94a16.11,16.11,0,0,1,3.09,10.32c0,8.47,0,16.93,0,25.39a23.81,23.81,0,0,1-.79,6.69l-.3.85-2,3.42-1.48,1.58a12.87,12.87,0,0,1-9.35,3.1c-3.75-.13-7.51,0-11.27,0q-15,0-29.89,0c-3.8,0-7.6.08-11.39.12-.53,1.24-.14,2.54-.21,3.81v55.44l-.21,4.2a20.37,20.37,0,0,1-1.44,4.35l-1.25,1.95-1.76,2-1.75,1.29-3.81,1.59-1,.11H269.58a40,40,0,0,1-7.17-.35l-3.23-1.47-1.36-1.11-2.47-2.84-.83-1.42a27.84,27.84,0,0,1-1.29-4l-.22-4.26V316.69c0-.9,0-1.8.06-2.69s-.21-1.26-1.11-1.26q-14.47.06-29,0-13,0-26,0a14.72,14.72,0,0,1-6.27-3.18l-1.28-1.43a17.35,17.35,0,0,1-3.11-8.5v-4.26a27.66,27.66,0,0,0,0-4.27l0-4.27a27.54,27.54,0,0,0,0-4.26l0-4.27a27.67,27.67,0,0,0,0-4.27c.15-1.79-.07-3.6.22-5.39l.1-1.12Z" transform="translate(-186.28 -181.89)"/></svg>