<svg id="aab552ac-8afc-4983-ae69-ebcada5a5ca9" data-name="Capa 1" xmlns="http://www.w3.org/2000/svg" viewBox="0 0 174.46 165.03"><defs><style>.b8d3f43c-a566-4434-bbd2-bfe41dcac6a5{fill:#17ad89;}</style></defs><path class="b8d3f43c-a566-4434-bbd2-bfe41dcac6a5" d="M202.2,338.32l-1.32-4-.16-1.53a14.94,14.94,0,0,1,1.58-6.83c.95-1.12,1.87-2.25,2.85-3.34,1.84-2.06,3.71-4.1,5.57-6.15a18.66,18.66,0,0,0,2.4-2.62l7.9-8.58a17.52,17.52,0,0,0,2.4-2.62l7.91-8.58a18.07,18.07,0,0,0,2.4-2.62c1.49-1.6,3-3.18,4.47-4.79,2.42-2.61,2.42-2.61-.69-5.15l-3.14-2.89-3.14-2.89-3.14-2.89L225,269.91,221.81,267l-3.14-2.88-3.14-2.9-3.13-2.88-3.15-2.89-3.13-2.89L203,249.69l-3.14-2.89-3.14-2.89-3-3.06-2-3.66-.38-1.21-.5-4.11.15-1.51,1.14-3.48,2.22-3.09,2.57-2.8,2.58-2.8,2.58-2.8,2.57-2.8,2.58-2.8,2.58-2.8,2-2a14.1,14.1,0,0,1,4.51-2.45l1.4-.34h3.83l1.35.22a25.78,25.78,0,0,1,5,2.18c.93.81,1.86,1.62,2.78,2.44s2.09,1.91,3.13,2.87l3.15,2.9,3.13,2.88,3.15,2.9,3.12,2.88q1.59,1.44,3.16,2.9l3.12,2.87,3.15,2.9,3.13,2.88L262,236l3.13,2.88,3.15,2.9q1.56,1.44,3.13,2.87c.74.7,1.51,1.37,2.21,2.11s1,.6,1.34-.12l7.91-8.58a17.52,17.52,0,0,0,2.4-2.62q4-4.29,7.91-8.57a19.31,19.31,0,0,0,2.4-2.63l7.9-8.57a18.1,18.1,0,0,0,2.4-2.63c1.5-1.6,3-3.17,4.48-4.79a12.55,12.55,0,0,1,7.93-4.42l2.66,0a16.24,16.24,0,0,1,9.7,4.72c6.19,5.77,12.43,11.48,18.67,17.19a23.54,23.54,0,0,1,4.39,5.12l.42.79c.39,1.27.77,2.54,1.15,3.81l.15,2.16a12.81,12.81,0,0,1-4.05,9c-2.63,2.68-5.12,5.5-7.66,8.26q-10.14,11-20.26,22c-2.57,2.8-5.08,5.64-7.62,8.46.55,1.23,1.78,1.82,2.66,2.74,1.05.95,2.09,1.91,3.13,2.87l3.15,2.9,3.13,2.88,3.15,2.9,3.13,2.88,3.15,2.9,3.12,2.87,3.15,2.9,3.13,2.88,3.15,2.9,3.13,2.88,3.15,2.9c1,1,2.08,1.92,3.13,2.87l2.95,3a21.26,21.26,0,0,1,2.22,4l.58,2.24.26,2.62-.24,2.17-1.41,3.87-.61.82L348,360.61a40,40,0,0,1-5.12,5L339.61,367l-1.74.25-3.76-.11-1.61-.35a28,28,0,0,1-3.82-1.76l-3.28-2.71-3.14-2.9-3.14-2.88L316,353.68l-3.14-2.89-3.14-2.89L306.56,345l-3.14-2.89-3.13-2.88-3.15-2.89L294,333.46l-3.14-2.89-3.14-2.89-3.14-2.89c-.65-.62-1.34-1.21-1.94-1.87s-1.07-.7-1.67,0q-9.76,10.69-19.59,21.33-8.82,9.59-17.66,19.15a14.73,14.73,0,0,1-6.59,2.46l-1.91,0a17.39,17.39,0,0,1-8.37-3.47l-3.13-2.88a26.92,26.92,0,0,0-3.16-2.88l-3.12-2.9a28.61,28.61,0,0,0-3.15-2.88l-3.13-2.9A28.61,28.61,0,0,0,208,345c-1.22-1.32-2.71-2.38-3.83-3.81l-.75-.83Z" transform="translate(-190.83 -202.25)"/></svg>