<svg xmlns="http://www.w3.org/2000/svg" xmlns:xlink="http://www.w3.org/1999/xlink" width="500" zoomAndPan="magnify" viewBox="0 0 375 374.999991" height="500" preserveAspectRatio="xMidYMid meet" version="1.0"><defs><clipPath id="8a79e2b98f"><path d="M 151 139 L 224.414062 139 L 224.414062 236.277344 L 151 236.277344 Z M 151 139 " clip-rule="nonzero"/></clipPath></defs><g clip-path="url(#8a79e2b98f)"><path fill="#5bf8bb" d="M 217.429688 166.765625 L 220.949219 166.765625 C 219.867188 175.371094 215.207031 212.503906 213.304688 227.699219 C 212.933594 230.621094 210.441406 232.8125 207.488281 232.8125 C 197.472656 232.8125 178.539062 232.8125 168.523438 232.8125 C 165.570312 232.8125 163.078125 230.621094 162.707031 227.699219 C 162.707031 227.699219 155.0625 166.765625 155.0625 166.765625 C 155.0625 166.765625 209.757812 166.765625 209.757812 166.765625 C 210.640625 166.765625 211.363281 166.046875 211.363281 165.164062 C 211.363281 164.277344 210.640625 163.558594 209.757812 163.558594 L 153.238281 163.558594 C 152.777344 163.558594 152.339844 163.757812 152.035156 164.101562 C 151.726562 164.445312 151.585938 164.902344 151.644531 165.359375 C 151.644531 165.359375 157.351562 210.855469 159.519531 228.09375 C 160.085938 232.621094 163.945312 236.019531 168.523438 236.019531 C 178.539062 236.019531 197.472656 236.019531 207.488281 236.019531 C 212.066406 236.019531 215.925781 232.621094 216.496094 228.09375 C 218.660156 210.855469 224.367188 165.359375 224.367188 165.359375 C 224.425781 164.902344 224.285156 164.445312 223.976562 164.101562 C 223.671875 163.757812 223.230469 163.558594 222.773438 163.558594 L 217.429688 163.558594 C 216.539062 163.558594 215.820312 164.277344 215.820312 165.164062 C 215.820312 166.046875 216.539062 166.765625 217.429688 166.765625 Z M 186.394531 182.472656 L 186.394531 217.101562 C 186.394531 217.984375 187.117188 218.703125 188.003906 218.703125 C 188.894531 218.703125 189.613281 217.984375 189.613281 217.101562 L 189.613281 182.472656 C 189.613281 181.589844 188.894531 180.871094 188.003906 180.871094 C 187.117188 180.871094 186.394531 181.589844 186.394531 182.472656 Z M 167.832031 182.667969 L 170.6875 217.175781 C 170.761719 218.054688 171.539062 218.710938 172.421875 218.640625 C 173.308594 218.566406 173.964844 217.792969 173.894531 216.910156 L 171.039062 182.402344 C 170.964844 181.519531 170.1875 180.863281 169.300781 180.9375 C 168.417969 181.011719 167.757812 181.785156 167.832031 182.667969 Z M 204.496094 182.402344 L 201.640625 216.910156 C 201.570312 217.792969 202.226562 218.566406 203.109375 218.640625 C 203.996094 218.710938 204.773438 218.054688 204.847656 217.175781 L 207.703125 182.667969 C 207.777344 181.785156 207.117188 181.011719 206.234375 180.9375 C 205.347656 180.863281 204.570312 181.519531 204.496094 182.402344 Z M 175.902344 152.632812 L 152.269531 158.941406 C 151.414062 159.167969 150.902344 160.046875 151.132812 160.902344 C 151.359375 161.757812 152.246094 162.265625 153.101562 162.035156 L 220.265625 144.113281 C 221.125 143.882812 221.632812 143.003906 221.402344 142.148438 C 221.171875 141.292969 220.289062 140.785156 219.433594 141.015625 L 195.800781 147.324219 L 193.964844 140.507812 C 193.734375 139.652344 192.855469 139.148438 191.996094 139.375 L 175.207031 143.855469 C 174.347656 144.085938 173.839844 144.964844 174.066406 145.820312 Z M 192.691406 148.152344 L 191.277344 142.886719 C 191.277344 142.886719 177.59375 146.539062 177.59375 146.539062 L 179.011719 151.800781 Z M 192.691406 148.152344 " fill-opacity="1" fill-rule="evenodd"/></g></svg>