<svg xmlns="http://www.w3.org/2000/svg" xmlns:xlink="http://www.w3.org/1999/xlink" width="500" zoomAndPan="magnify" viewBox="0 0 375 374.999991" height="500" preserveAspectRatio="xMidYMid meet" version="1.0"><path fill="#39c4eb" d="M 370.792969 62.027344 C 367.726562 58.308594 363.15625 56.15625 358.328125 56.15625 L 82.492188 56.15625 L 69.21875 11.5625 C 67.175781 4.707031 60.878906 0.0078125 53.722656 0.0078125 L 4.371094 0.0078125 C -4.558594 0.0078125 -11.796875 7.246094 -11.796875 16.175781 C -11.796875 25.101562 -4.558594 32.335938 4.371094 32.335938 L 41.664062 32.335938 L 102.085938 235.261719 C 95.535156 247.269531 89.324219 264.457031 96.367188 278.859375 C 102.605469 291.605469 116.695312 298.074219 138.246094 298.074219 C 138.636719 298.074219 139.027344 298.058594 139.417969 298.019531 C 140.820312 297.890625 280.097656 285.121094 328.121094 287.839844 C 335.121094 288.214844 341.183594 282.859375 341.582031 275.816406 C 341.980469 268.78125 336.597656 262.753906 329.554688 262.363281 C 280.800781 259.613281 149.140625 271.5 137.679688 272.546875 C 125.863281 272.46875 120.390625 269.871094 119.300781 267.648438 C 118.082031 265.167969 118.949219 260.488281 120.996094 255.1875 C 121.339844 255.167969 121.679688 255.164062 122.03125 255.121094 L 333.039062 229.601562 C 340.015625 228.753906 345.644531 223.5 346.972656 216.609375 L 374.207031 75.386719 C 375.113281 70.644531 373.867188 65.746094 370.792969 62.027344 Z M 253.671875 140.445312 L 187.308594 140.445312 L 187.308594 88.484375 L 253.671875 88.484375 Z M 112.152344 155.753906 L 171.992188 155.753906 L 171.992188 216.511719 L 131.691406 221.390625 Z M 187.308594 155.753906 L 253.671875 155.753906 L 253.671875 206.632812 L 187.308594 214.660156 Z M 328.734375 140.445312 L 268.988281 140.445312 L 268.988281 88.484375 L 338.753906 88.484375 Z M 171.992188 88.484375 L 171.992188 140.445312 L 107.59375 140.445312 L 92.121094 88.484375 Z M 268.988281 204.777344 L 268.988281 155.753906 L 325.78125 155.753906 L 317.457031 198.914062 Z M 268.988281 204.777344 " fill-opacity="1" fill-rule="nonzero"/><path fill="#39c4eb" d="M 150.71875 342.832031 C 150.71875 343.886719 150.667969 344.945312 150.566406 345.996094 C 150.460938 347.050781 150.304688 348.09375 150.097656 349.132812 C 149.894531 350.167969 149.636719 351.195312 149.328125 352.207031 C 149.023438 353.21875 148.667969 354.214844 148.261719 355.191406 C 147.855469 356.167969 147.40625 357.121094 146.90625 358.054688 C 146.40625 358.988281 145.863281 359.894531 145.277344 360.773438 C 144.6875 361.652344 144.058594 362.503906 143.386719 363.320312 C 142.714844 364.136719 142.007812 364.921875 141.257812 365.667969 C 140.511719 366.417969 139.726562 367.125 138.910156 367.796875 C 138.09375 368.46875 137.242188 369.097656 136.363281 369.683594 C 135.484375 370.273438 134.578125 370.816406 133.644531 371.316406 C 132.710938 371.8125 131.757812 372.265625 130.78125 372.671875 C 129.800781 373.074219 128.808594 373.429688 127.792969 373.738281 C 126.78125 374.046875 125.757812 374.300781 124.71875 374.507812 C 123.683594 374.714844 122.636719 374.871094 121.582031 374.972656 C 120.53125 375.078125 119.476562 375.128906 118.417969 375.128906 C 117.359375 375.128906 116.304688 375.078125 115.25 374.972656 C 114.199219 374.871094 113.152344 374.714844 112.117188 374.507812 C 111.078125 374.300781 110.054688 374.046875 109.039062 373.738281 C 108.027344 373.429688 107.035156 373.074219 106.054688 372.671875 C 105.078125 372.265625 104.125 371.8125 103.191406 371.316406 C 102.257812 370.816406 101.351562 370.273438 100.472656 369.683594 C 99.59375 369.097656 98.742188 368.46875 97.925781 367.796875 C 97.109375 367.125 96.324219 366.417969 95.578125 365.667969 C 94.828125 364.921875 94.117188 364.136719 93.449219 363.320312 C 92.777344 362.503906 92.148438 361.652344 91.558594 360.773438 C 90.972656 359.894531 90.429688 358.988281 89.929688 358.054688 C 89.429688 357.121094 88.980469 356.167969 88.574219 355.191406 C 88.167969 354.214844 87.8125 353.21875 87.507812 352.207031 C 87.199219 351.195312 86.941406 350.167969 86.734375 349.132812 C 86.53125 348.09375 86.375 347.050781 86.269531 345.996094 C 86.167969 344.945312 86.117188 343.886719 86.117188 342.832031 C 86.117188 341.773438 86.167969 340.71875 86.269531 339.664062 C 86.375 338.613281 86.53125 337.566406 86.734375 336.527344 C 86.941406 335.492188 87.199219 334.46875 87.507812 333.453125 C 87.8125 332.441406 88.167969 331.449219 88.574219 330.46875 C 88.980469 329.492188 89.429688 328.539062 89.929688 327.605469 C 90.429688 326.671875 90.972656 325.765625 91.558594 324.886719 C 92.148438 324.007812 92.777344 323.15625 93.449219 322.339844 C 94.117188 321.523438 94.828125 320.738281 95.578125 319.992188 C 96.324219 319.242188 97.109375 318.535156 97.925781 317.863281 C 98.742188 317.191406 99.59375 316.5625 100.472656 315.976562 C 101.351562 315.386719 102.257812 314.84375 103.191406 314.34375 C 104.125 313.847656 105.078125 313.394531 106.054688 312.992188 C 107.035156 312.585938 108.027344 312.230469 109.039062 311.921875 C 110.054688 311.617188 111.078125 311.359375 112.117188 311.152344 C 113.152344 310.945312 114.199219 310.792969 115.25 310.6875 C 116.304688 310.582031 117.359375 310.53125 118.417969 310.53125 C 119.476562 310.53125 120.53125 310.582031 121.582031 310.6875 C 122.636719 310.792969 123.683594 310.945312 124.71875 311.152344 C 125.757812 311.359375 126.78125 311.617188 127.792969 311.921875 C 128.808594 312.230469 129.800781 312.585938 130.78125 312.992188 C 131.757812 313.394531 132.710938 313.847656 133.644531 314.347656 C 134.578125 314.84375 135.484375 315.386719 136.363281 315.976562 C 137.242188 316.5625 138.09375 317.191406 138.910156 317.863281 C 139.726562 318.535156 140.511719 319.242188 141.257812 319.992188 C 142.007812 320.738281 142.714844 321.523438 143.386719 322.339844 C 144.058594 323.15625 144.6875 324.007812 145.277344 324.886719 C 145.863281 325.765625 146.40625 326.671875 146.90625 327.605469 C 147.40625 328.539062 147.855469 329.492188 148.261719 330.46875 C 148.667969 331.449219 149.023438 332.441406 149.328125 333.453125 C 149.636719 334.46875 149.894531 335.492188 150.097656 336.527344 C 150.304688 337.566406 150.460938 338.613281 150.566406 339.664062 C 150.667969 340.71875 150.71875 341.773438 150.71875 342.832031 Z M 150.71875 342.832031 " fill-opacity="1" fill-rule="nonzero"/><path fill="#39c4eb" d="M 334.503906 342.832031 C 334.503906 343.886719 334.453125 344.945312 334.347656 345.996094 C 334.246094 347.050781 334.089844 348.09375 333.882812 349.132812 C 333.675781 350.167969 333.421875 351.195312 333.113281 352.207031 C 332.804688 353.21875 332.449219 354.214844 332.046875 355.191406 C 331.640625 356.167969 331.1875 357.121094 330.691406 358.054688 C 330.191406 358.988281 329.648438 359.894531 329.058594 360.773438 C 328.472656 361.652344 327.84375 362.503906 327.171875 363.320312 C 326.5 364.136719 325.789062 364.921875 325.042969 365.667969 C 324.292969 366.417969 323.511719 367.125 322.695312 367.796875 C 321.875 368.46875 321.027344 369.097656 320.148438 369.683594 C 319.269531 370.273438 318.363281 370.816406 317.429688 371.316406 C 316.496094 371.8125 315.539062 372.265625 314.5625 372.671875 C 313.585938 373.074219 312.589844 373.429688 311.578125 373.738281 C 310.566406 374.046875 309.542969 374.300781 308.503906 374.507812 C 307.464844 374.714844 306.421875 374.871094 305.367188 374.972656 C 304.316406 375.078125 303.257812 375.128906 302.203125 375.128906 C 301.144531 375.128906 300.089844 375.078125 299.035156 374.972656 C 297.984375 374.871094 296.9375 374.714844 295.898438 374.507812 C 294.863281 374.300781 293.835938 374.046875 292.824219 373.738281 C 291.8125 373.429688 290.816406 373.074219 289.839844 372.671875 C 288.863281 372.265625 287.90625 371.8125 286.972656 371.316406 C 286.042969 370.816406 285.136719 370.273438 284.253906 369.683594 C 283.375 369.097656 282.527344 368.46875 281.710938 367.796875 C 280.890625 367.125 280.109375 366.417969 279.359375 365.667969 C 278.613281 364.921875 277.902344 364.136719 277.230469 363.320312 C 276.5625 362.503906 275.929688 361.652344 275.34375 360.773438 C 274.753906 359.894531 274.210938 358.988281 273.714844 358.054688 C 273.214844 357.121094 272.761719 356.167969 272.359375 355.191406 C 271.953125 354.214844 271.597656 353.21875 271.289062 352.207031 C 270.984375 351.195312 270.726562 350.167969 270.519531 349.132812 C 270.3125 348.09375 270.160156 347.050781 270.054688 345.996094 C 269.953125 344.945312 269.898438 343.886719 269.898438 342.832031 C 269.898438 341.773438 269.953125 340.71875 270.054688 339.664062 C 270.160156 338.613281 270.3125 337.566406 270.519531 336.527344 C 270.726562 335.492188 270.984375 334.46875 271.289062 333.453125 C 271.597656 332.441406 271.953125 331.449219 272.359375 330.46875 C 272.761719 329.492188 273.214844 328.539062 273.714844 327.605469 C 274.210938 326.671875 274.753906 325.765625 275.34375 324.886719 C 275.929688 324.007812 276.5625 323.15625 277.230469 322.339844 C 277.902344 321.523438 278.613281 320.738281 279.359375 319.992188 C 280.109375 319.242188 280.890625 318.535156 281.710938 317.863281 C 282.527344 317.191406 283.375 316.5625 284.253906 315.976562 C 285.136719 315.386719 286.042969 314.84375 286.972656 314.34375 C 287.90625 313.847656 288.863281 313.394531 289.839844 312.992188 C 290.816406 312.585938 291.8125 312.230469 292.824219 311.921875 C 293.835938 311.617188 294.863281 311.359375 295.898438 311.152344 C 296.9375 310.945312 297.984375 310.792969 299.035156 310.6875 C 300.089844 310.582031 301.144531 310.53125 302.203125 310.53125 C 303.257812 310.53125 304.316406 310.582031 305.367188 310.6875 C 306.421875 310.792969 307.464844 310.945312 308.503906 311.152344 C 309.542969 311.359375 310.566406 311.617188 311.578125 311.921875 C 312.589844 312.230469 313.585938 312.585938 314.5625 312.992188 C 315.539062 313.394531 316.496094 313.847656 317.429688 314.347656 C 318.363281 314.84375 319.269531 315.386719 320.148438 315.976562 C 321.027344 316.5625 321.875 317.191406 322.695312 317.863281 C 323.511719 318.535156 324.292969 319.242188 325.042969 319.992188 C 325.789062 320.738281 326.5 321.523438 327.171875 322.339844 C 327.84375 323.15625 328.472656 324.007812 329.058594 324.886719 C 329.648438 325.765625 330.191406 326.671875 330.691406 327.605469 C 331.1875 328.539062 331.640625 329.492188 332.046875 330.46875 C 332.449219 331.449219 332.804688 332.441406 333.113281 333.453125 C 333.421875 334.46875 333.675781 335.492188 333.882812 336.527344 C 334.089844 337.566406 334.246094 338.613281 334.347656 339.664062 C 334.453125 340.71875 334.503906 341.773438 334.503906 342.832031 Z M 334.503906 342.832031 " fill-opacity="1" fill-rule="nonzero"/></svg>